<?xml version="1.0" encoding="utf-8"?>
<!-- Generator: Adobe Illustrator 24.3.0, SVG Export Plug-In . SVG Version: 6.00 Build 0)  -->
<svg version="1.1" id="Layer_1" xmlns="http://www.w3.org/2000/svg" xmlns:xlink="http://www.w3.org/1999/xlink" x="0px" y="0px"
	 viewBox="0 0 612 792" style="enable-background:new 0 0 612 792;" xml:space="preserve">
<g>
	<path d="M101,547.1c0-100.6,0-201.2,0-301.8c0.3-0.9,0.6-1.7,0.8-2.6c5-30,29.4-50.8,59.9-50.8c95.8-0.1,191.6-0.1,287.5,0.1
		c6.7,0,13.6,1.1,19.9,3.2c25.3,8.4,40.8,30.8,40.8,58.2c0,95.3,0,190.5,0,285.8c0,1.3,0,2.7-0.1,4c-1.6,23.2-12.6,40.6-33.5,51.1
		c-6.2,3.1-13.3,4.3-20,6.4c-100.6,0-201.3,0-301.9,0c-0.7-0.2-1.5-0.6-2.2-0.7c-21.2-3.5-36.5-15-45.6-34.3
		C103.9,559.8,102.8,553.3,101,547.1z M305.5,576.6c47.6,0,95.3,0.1,142.9,0c22,0,37.5-15.5,37.5-37.4c0.1-95.4,0.1-190.8,0-286.2
		c0-21.7-15.6-37.2-37.3-37.2c-95.4-0.1-190.9-0.1-286.3,0c-21.8,0-37.3,15.5-37.3,37.2c-0.1,95.4-0.1,190.8,0.1,286.2
		c0,5.7,1.3,11.8,3.7,16.9c6.6,14.2,18.7,20.5,34.1,20.5C210.4,576.7,257.9,576.6,305.5,576.6z"/>
	<path d="M305.6,504c-59.1,0.1-107.7-48.3-107.9-107.6c-0.2-59.2,48.6-108.1,107.9-108c59.2,0.1,107.7,48.6,107.7,107.8
		S364.8,503.8,305.6,504z M389.3,396.3c0.1-46.1-37.6-83.8-83.8-83.9c-46.1-0.1-83.9,37.6-83.9,83.7c-0.1,46.1,37.6,83.8,83.8,83.9
		C351.4,480.1,389.2,442.4,389.3,396.3z"/>
	<path d="M425.1,240.5c19.5-0.2,35.8,16,36.1,35.7c0.2,19.4-15.9,35.8-35.6,36.2c-19.5,0.3-36.2-16.1-36.3-35.8
		C389.3,257,405.5,240.7,425.1,240.5z M437.2,276.3c-0.1-6.5-5.5-11.9-12-11.9c-6.5,0.1-11.9,5.5-11.9,12c0.1,6.5,5.5,11.9,12,11.9
		C431.9,288.3,437.2,282.8,437.2,276.3z"/>
</g>
</svg>
