<?xml version="1.0" encoding="utf-8"?>
<!-- Generator: Adobe Illustrator 24.3.0, SVG Export Plug-In . SVG Version: 6.00 Build 0)  -->
<svg version="1.1" id="Layer_1" xmlns="http://www.w3.org/2000/svg" xmlns:xlink="http://www.w3.org/1999/xlink" x="0px" y="0px"
	 viewBox="0 0 612 792" style="enable-background:new 0 0 612 792;" xml:space="preserve">
<g>
	<path d="M101,408.2c0-8,0-16,0-24c0.2-1.4,0.5-2.8,0.7-4.3c1.2-8.5,1.8-17.2,3.7-25.6c11.7-53.1,39.7-95.7,84.6-126.5
		c48.1-33,101.4-43.4,158.5-31.3c45.4,9.6,83.2,32.6,113,68.1c36.9,44,52.7,95.1,47.2,152.3c-3.9,40.5-19.1,76.7-45,108.1
		c-32.2,39.1-73.2,63.4-123.1,72.4c-7.7,1.4-15.5,2.1-23.2,3.2c-8,0-16,0-24,0c-2.9-0.3-5.8-0.7-8.7-1c-33.3-3.7-64.2-14.3-92-33.1
		c-48.2-32.7-78-77.7-88.6-135.1C102.8,423.7,102,415.9,101,408.2z M305.3,576.6c99.4,0.2,180.6-80.9,180.7-180.4
		c0.1-99.3-80.6-180.2-180.1-180.6c-99.4-0.3-180.6,80.6-180.9,180.2C124.7,495.3,205.7,576.5,305.3,576.6z"/>
	<path d="M437.4,360.1c-8.3,0-16,0-23,0c-1.9-4.7-3.1-9.6-5.7-13.6c-6.1-9.4-18.4-12.6-28.7-8.3c-10,4.2-16,15.1-14.3,25.6
		c1.9,11.4,10.8,19.4,22.4,20.3c4.2,0.3,8.5,0.6,12.6,1.6c22.3,5.3,37.4,25.7,36.4,48.9c-1,22.3-18.2,41.6-40.6,44.6
		c-23.6,3.2-41.4-6.7-54.4-25.9c-9.2-13.6-14.2-29.1-20-44.2c-5.3-13.9-10.6-27.8-16.9-41.3c-20.8-44.6-69.7-35.9-90.8-13.4
		c-16.9,18.1-21.7,44-11.7,65.9c10.5,23,33.1,36.9,58.3,35.5c13.4-0.8,25.3-5.6,35.5-14.5c0.8-0.7,1.6-1.4,2.4-2.1
		c0.2-0.2,0.5-0.2,0.4-0.2c5.6,5.6,11.1,11.1,16.8,16.8c-13,12.7-28.8,20.8-47.3,23.2c-44,5.6-83.3-22-93.3-65.4
		c-9.8-42.4,17.7-87.5,59.8-98.4c21.9-5.6,43-4.1,62.6,8.1c12.7,7.9,22,19.2,28.1,32.5c7.7,16.7,13.9,34.2,21,51.2
		c4.5,10.8,9,21.6,14.5,31.9c5.3,10,13.9,16.3,25.8,16.9c14,0.7,25.3-9.5,25.8-23.1c0.5-13.2-9.8-24.1-23.6-24.6
		c-14.3-0.5-26.4-5.5-36-16.2c-13.6-15-16.1-37.2-6.2-55c10.1-18.2,30.2-27.6,51.1-23.9c19.3,3.4,35.1,19.9,38.1,39.7
		C436.9,355.1,437.1,357.4,437.4,360.1z"/>
</g>
</svg>
