<?xml version="1.0" encoding="utf-8"?>
<!-- Generator: Adobe Illustrator 24.3.0, SVG Export Plug-In . SVG Version: 6.00 Build 0)  -->
<svg version="1.1" id="Layer_1" xmlns="http://www.w3.org/2000/svg" xmlns:xlink="http://www.w3.org/1999/xlink" x="0px" y="0px"
	 viewBox="0 0 612 792" style="enable-background:new 0 0 612 792;" xml:space="preserve">
<g>
	<path d="M101.1,519.4c31.6-10.9,63-20.1,93.9-33.2c-30.3-15-44.4-40.8-51.9-71.5c0.9-0.1,2-0.2,3.7-0.5
		c-21.3-23-29.1-49.7-23.8-80.6c2.6,0.9,5.3,1.9,9,3.2c-10.2-20.8-12.7-41.6-7.7-63.2c3.3-14.2,10.4-26.6,17.9-39.7
		c36.7,49.1,83.7,80.8,145.3,89.3c0-7.9-0.9-15.7,0.2-23.2c3.7-27.9,19.2-48,44.1-60.1c33.6-16.3,66.6-14.5,98,6.4
		c0.4,0.3,1,0.5,1.3,0.9c4.3,5.4,9.2,4.8,15.1,2.6c15.2-5.7,30.5-10.8,45.8-16.2c1.3-0.5,2.7-0.9,5-1.6c-5.1,14.8-10,28.7-14.9,42.6
		c9.1,0,18,0,27.2,0c-0.7,1-1.4,2.1-2.1,3.2c-11.1,15.1-21.9,30.4-33.4,45.3c-7.7,9.9-10.5,20.8-9.9,33.1
		c1.4,27.6-1.4,54.7-9.8,81.1c-14.3,44.9-42.4,78.3-84,100.4c-30,15.9-62.3,23.2-96,25.4c-28.6,1.9-56.9,0.3-84.9-5.7
		c-22.8-4.9-43.9-14.3-64.4-25.2C117,528.2,109.5,524,101.1,519.4z M275.8,474.3c-36.7,18.1-73,36.5-112.6,49.6
		c1.9,0.8,2.6,1.2,3.4,1.5c2.4,0.9,4.7,1.8,7.1,2.6c20.8,7.8,42.6,10.4,64.5,11.5c39.3,1.9,77.6-2.7,113.6-19.6
		c42-19.7,69.3-51.9,81.5-96.7c6-21.9,7.6-44.2,6.8-66.8c-0.2-5.9,0.1-12,0.9-17.9c1.7-12.4,7.9-22.7,15.6-32.2
		c1.3-1.7,2.5-3.5,4.2-5.9c-4.8,0-8.6,0-12.9,0c3.4-9.8,6.6-19.2,10.1-29.2c-4.4,1.3-8,2.3-11.5,3.5c-10.1,3.6-18.7,1.3-26.5-5.9
		c-2.7-2.5-5.9-4.6-9.1-6.5c-21-11.8-42.6-12.1-64.5-3c-15.1,6.3-26.3,16.9-32.3,32.4c-4.5,11.6-3.7,23.4-1.2,35.3
		c1.5,7.3,2.2,14.8,3.3,22.4c-65.8-1.8-121.9-24.7-168-71.9c-3,11.2-3,21.5-0.6,31.9c3.6,15,11.3,27.5,23.1,37.3
		c10.3,8.6,21,16.7,31.6,25.1c1.1,0.8,2.1,1.8,3.1,2.6c-0.1,0.2-0.3,0.4-0.4,0.6c-19-2-38-4.1-57-6.1c0,0.2-0.1,0.6,0,0.9
		c0.2,0.8,0.4,1.5,0.7,2.3c7.6,21,21.9,35.4,43.3,41.9c14.6,4.4,29.6,7.6,44.4,11.3c1.1,0.3,2.1,0.6,3.2,0.9c0,0.3,0,0.5,0,0.8
		c-19.7,5.2-39.4,10.4-59.2,15.6c3.8,6.2,9.5,11.7,16,16.4c12.8,9.3,27.6,11.9,43,12.6C251.4,472.6,263.6,473.6,275.8,474.3z"/>
</g>
</svg>
