<?xml version="1.0" encoding="utf-8"?>
<!-- Generator: Adobe Illustrator 24.3.0, SVG Export Plug-In . SVG Version: 6.00 Build 0)  -->
<svg version="1.1" id="Layer_1" xmlns="http://www.w3.org/2000/svg" xmlns:xlink="http://www.w3.org/1999/xlink" x="0px" y="0px"
	 viewBox="0 0 612 792" style="enable-background:new 0 0 612 792;" xml:space="preserve">
<g>
	<path d="M101,552.7c0-102.2,0-204.4,0-306.6c1.1-0.9,2.3-1.7,3.3-2.7c16.3-16.3,32.6-32.5,48.8-48.9c1.9-1.9,3.8-2.8,6.6-2.8
		c115.2,0.1,230.4,0.1,345.7,0.1c1.4,0,2.8,0,4.4,0c0,1.6,0,2.6,0,3.7c0,91.7,0,183.3-0.1,275c0,1.9-1.1,4.4-2.5,5.8
		c-24.5,24.7-49.1,49.2-73.5,73.8c-2,2-3.9,2.7-6.6,2.7c-37.7-0.1-75.3,0-113-0.1c-2.6,0-4.4,0.7-6.3,2.5
		c-14.1,14.3-28.4,28.5-42.6,42.7c-0.8,0.8-1.4,1.8-2.2,2.7c-22.1,0-44.2,0-66.3,0c0-15.9,0-31.8,0-47.9
		C164.5,552.7,132.8,552.7,101,552.7z M485.8,215.8c-1.7,0-2.8,0-4,0c-104.2,0-208.4,0-312.5,0.1c-2,0-4.4,1-5.8,2.4
		c-12,11.7-23.7,23.7-35.7,35.4c-2,2-2.9,4-2.9,6.9C125,348.4,125,436.2,125,524c0,1.4,0,2.9,0,4.7c32.1,0,63.8,0,96,0
		c0,16.2,0,31.9,0,47.8c9.6,0,18.8-0.1,27.9,0.1c2.6,0,4.4-0.7,6.3-2.6c14.1-14.3,28.4-28.4,42.5-42.7c1.9-2,3.9-2.7,6.6-2.7
		c37.5,0.1,75,0,112.6,0.1c2.8,0,4.9-0.7,7-2.8c19.7-19.8,39.4-39.6,59.3-59.3c2.1-2.1,2.8-4.1,2.8-7c-0.1-79.7-0.1-159.4-0.1-239.1
		C485.8,219.2,485.8,217.8,485.8,215.8z"/>
	<path d="M461.9,240c0,1.6,0,2.9,0,4.2c0,59.2,0,118.4,0.1,177.6c0,2.9-0.8,4.9-2.9,7c-16.5,16.3-32.8,32.7-49.1,49.1
		c-2.2,2.2-4.3,3-7.3,2.9c-29.5-0.1-59.1,0-88.6-0.1c-2.6,0-4.4,0.7-6.3,2.6c-19.4,19.5-38.9,39-58.4,58.5c-1,1-1.8,2.3-2.7,3.4
		c-0.3-0.2-0.7-0.3-1-0.5c0-21.2,0-42.3,0-63.9c-24.5,0-48.5,0-72.6,0c0-80.5,0-160.5,0-240.9C269.2,240,365.3,240,461.9,240z
		 M269.7,456.8c0,10.4,0,20.3,0,30.1c0.3,0.2,0.6,0.3,1,0.5c1.1-1.3,2.1-2.8,3.3-4c8.9-8.8,17.8-17.6,26.6-26.4
		c12.5-0.1,25-0.1,37.5-0.1c18.5,0,37,0.1,55.5-0.1c2,0,4.4-1,5.8-2.4c12.2-11.9,24.2-23.9,36.1-36.1c1.4-1.4,2.4-3.8,2.4-5.8
		c0.1-48.3,0.1-96.6,0.1-144.9c0-1.3,0-2.5,0-3.6c-80.7,0-160.9,0-240.9,0c0,64.4,0,128.5,0,192.8
		C221.1,456.8,245,456.8,269.7,456.8z"/>
	<path d="M317.1,396.8c-8,0-15.6,0-23.5,0c0-24.3,0-48.5,0-73c7.7,0,15.4,0,23.5,0C317.1,348,317.1,372.3,317.1,396.8z"/>
	<path d="M366.3,396.8c0-24.3,0-48.5,0-72.9c7.7,0,15.5,0,23.5,0c0,24.2,0,48.4,0,72.9C382,396.8,374.2,396.8,366.3,396.8z"/>
</g>
</svg>
