<?xml version="1.0" encoding="utf-8"?>
<!-- Generator: Adobe Illustrator 24.3.0, SVG Export Plug-In . SVG Version: 6.00 Build 0)  -->
<svg version="1.1" id="Layer_1" xmlns="http://www.w3.org/2000/svg" xmlns:xlink="http://www.w3.org/1999/xlink" x="0px" y="0px"
	 viewBox="0 0 612 792" style="enable-background:new 0 0 612 792;" xml:space="preserve">
<g>
	<path d="M101,294c2.1-6.7,3.3-13.8,6.4-20c10.6-21,28-32,51.5-33.4c6.1-0.4,12.2-0.1,18.4-0.1c90.3,0,180.7,0,271,0
		c27.5,0,50,15.6,58.3,41.1c2,6.2,3.1,13,3.1,19.6c0.2,63.3,0.2,126.7,0.1,190c-0.1,34.4-26.3,60.6-60.7,60.7
		c-95.8,0.1-191.6,0.1-287.4,0c-30.6,0-54.9-20.9-59.9-50.8c-0.1-0.9-0.5-1.8-0.8-2.6C101,430.3,101,362.1,101,294z M305.6,527.9
		c47.5,0,95,0,142.5,0c22.2,0,37.7-15.4,37.7-37.6c0.1-62.8,0.1-125.6,0-188.4c0-22-15.5-37.4-37.5-37.4
		c-95.3-0.1-190.5-0.1-285.8,0c-22,0-37.5,15.4-37.5,37.4c-0.1,62.9-0.1,125.9,0.1,188.8c0,5.5,1.2,11.5,3.6,16.5
		c6.7,14.3,18.8,20.7,34.4,20.7C210.6,527.9,258.1,527.9,305.6,527.9z"/>
	<path d="M245.8,316.1c48,26.7,95.6,53.1,143.8,79.9c-48.1,27.6-95.8,55-143.8,82.6C245.8,424.3,245.8,370.6,245.8,316.1z
		 M269.7,356.8c0,27.1,0,53.5,0,80.4c23.8-13.7,47.2-27.1,71.2-40.9C316.9,383,293.5,370,269.7,356.8z"/>
</g>
</svg>
